# xmcd CD database file
#
# Track frame offsets:
#	150
#	28843
#	46818
#	75962
#	105577
#	131045
#	155400
#	175519
#	195988
#	220650
#	240142
#
# Disc length: 3382 seconds
#
# Revision: 0
# Processed by: cddbd v1.5.2PL0 Copyright (c) Steve Scherf et al.
# Submitted via: CDex 1.82
#
DISCID=770d340b
DTITLE=Sandro Zerafa - White Russian 5tet
DYEAR=2007
DGENRE=Jazz
TTITLE0=Sidewalk Slant
TTITLE1=Delightfully Disconnected
TTITLE2=Siberian Pig Race
TTITLE3=North Street
TTITLE4=White Russian
TTITLE5=Untimely
TTITLE6=Moose
TTITLE7=Staring
TTITLE8=Lullaby
TTITLE9=Goose
TTITLE10=Road Movie Chorale
EXTD=YEAR: 2007
EXTT0=
EXTT1=
EXTT2=
EXTT3=
EXTT4=
EXTT5=
EXTT6=
EXTT7=
EXTT8=
EXTT9=
EXTT10=
PLAYORDER=
